# xmcd
#
# Track frame offsets:
#	225
#	13491
#	22666
#	44635
#	56162
#	61595
#	73104
#	92189
#	105401
#	118792
#	129175
#	140364
#	149159
#	167391
#	181263
#	195689
#
# Disc length: 2766
#
# Revision: 1
# Processed by: cddbd v1.5.1PL0 Copyright (c) Steve Scherf et al.
# Submitted via: EasyCDDAExtractor 4.6.0.1
# Normalized: r0:DSETVAR1,TDELIM( - )
#
DISCID=e40acb10
DTITLE=Various Artist - THE BEST OF COUNTRY 1 [CD-3)
DYEAR=1996
DGENRE=Country
TTITLE0=LORETTA LYNN - Let Your Love Flow
TTITLE1=JIM REEVES - Billy Bayou
TTITLE2=WILLIE NELSON - City Of New Orleans
TTITLE3=JOHNNY PAYCHECK - Heartaches By The Number
TTITLE4=BRENDA LEE - Operator
TTITLE5=SAMMI SMITH - Help Me Make It Trough The Night
TTITLE6=JOHN DENVER - Hold On To Me
TTITLE7=FERLIN HUSKY - A Room Full Of Roses
TTITLE8=JOHNNY RUSSELL - Catfish John
TTITLE9=PATSY CLINE - Pick Me Up On Your Way Down
TTITLE10=JEANNIE C. RILEY - Box Of Memories
TTITLE11=JOHNNY CASH - Get Rhythm
TTITLE12=TOM T. HALL - I Like Beer
TTITLE13=B. FAIRCHILD and B. OWENS - Crazy Love
TTITLE14=JERRY LEE LEWIS - What's Made Milwakee Famous
TTITLE15=JACK GREENE - There Goes My Everything
EXTD=
EXTT0=
EXTT1=
EXTT2=
EXTT3=
EXTT4=
EXTT5=
EXTT6=
EXTT7=
EXTT8=
EXTT9=
EXTT10=
EXTT11=
EXTT12=
EXTT13=
EXTT14=
EXTT15=
PLAYORDER=
